%TF.GenerationSoftware,KiCad,Pcbnew,7.0.10-7.0.10~ubuntu22.04.1*%
%TF.CreationDate,2024-04-21T13:32:48+02:00*%
%TF.ProjectId,axis_control_board,61786973-5f63-46f6-9e74-726f6c5f626f,rev?*%
%TF.SameCoordinates,Original*%
%TF.FileFunction,Copper,L1,Top*%
%TF.FilePolarity,Positive*%
%FSLAX46Y46*%
G04 Gerber Fmt 4.6, Leading zero omitted, Abs format (unit mm)*
G04 Created by KiCad (PCBNEW 7.0.10-7.0.10~ubuntu22.04.1) date 2024-04-21 13:32:48*
%MOMM*%
%LPD*%
G01*
G04 APERTURE LIST*
G04 Aperture macros list*
%AMRoundRect*
0 Rectangle with rounded corners*
0 $1 Rounding radius*
0 $2 $3 $4 $5 $6 $7 $8 $9 X,Y pos of 4 corners*
0 Add a 4 corners polygon primitive as box body*
4,1,4,$2,$3,$4,$5,$6,$7,$8,$9,$2,$3,0*
0 Add four circle primitives for the rounded corners*
1,1,$1+$1,$2,$3*
1,1,$1+$1,$4,$5*
1,1,$1+$1,$6,$7*
1,1,$1+$1,$8,$9*
0 Add four rect primitives between the rounded corners*
20,1,$1+$1,$2,$3,$4,$5,0*
20,1,$1+$1,$4,$5,$6,$7,0*
20,1,$1+$1,$6,$7,$8,$9,0*
20,1,$1+$1,$8,$9,$2,$3,0*%
G04 Aperture macros list end*
%TA.AperFunction,ComponentPad*%
%ADD10C,1.600000*%
%TD*%
%TA.AperFunction,ComponentPad*%
%ADD11R,1.600000X1.600000*%
%TD*%
%TA.AperFunction,ComponentPad*%
%ADD12C,3.600000*%
%TD*%
%TA.AperFunction,ConnectorPad*%
%ADD13C,6.400000*%
%TD*%
%TA.AperFunction,ComponentPad*%
%ADD14R,1.700000X1.700000*%
%TD*%
%TA.AperFunction,ComponentPad*%
%ADD15O,1.700000X1.700000*%
%TD*%
%TA.AperFunction,ComponentPad*%
%ADD16O,1.600000X1.600000*%
%TD*%
%TA.AperFunction,ComponentPad*%
%ADD17R,2.000000X1.905000*%
%TD*%
%TA.AperFunction,ComponentPad*%
%ADD18O,2.000000X1.905000*%
%TD*%
%TA.AperFunction,ComponentPad*%
%ADD19R,1.050000X1.500000*%
%TD*%
%TA.AperFunction,ComponentPad*%
%ADD20O,1.050000X1.500000*%
%TD*%
%TA.AperFunction,ComponentPad*%
%ADD21RoundRect,0.250000X0.725000X-0.600000X0.725000X0.600000X-0.725000X0.600000X-0.725000X-0.600000X0*%
%TD*%
%TA.AperFunction,ComponentPad*%
%ADD22O,1.950000X1.700000*%
%TD*%
%TA.AperFunction,ComponentPad*%
%ADD23R,1.800000X1.800000*%
%TD*%
%TA.AperFunction,ComponentPad*%
%ADD24C,1.800000*%
%TD*%
%TA.AperFunction,ComponentPad*%
%ADD25R,2.400000X1.600000*%
%TD*%
%TA.AperFunction,ComponentPad*%
%ADD26O,2.400000X1.600000*%
%TD*%
%TA.AperFunction,ComponentPad*%
%ADD27RoundRect,0.250000X-0.750000X0.600000X-0.750000X-0.600000X0.750000X-0.600000X0.750000X0.600000X0*%
%TD*%
%TA.AperFunction,ComponentPad*%
%ADD28O,2.000000X1.700000*%
%TD*%
%TA.AperFunction,ComponentPad*%
%ADD29RoundRect,0.250000X-0.725000X0.600000X-0.725000X-0.600000X0.725000X-0.600000X0.725000X0.600000X0*%
%TD*%
%TA.AperFunction,ComponentPad*%
%ADD30C,1.700000*%
%TD*%
%TA.AperFunction,Conductor*%
%ADD31C,0.800000*%
%TD*%
%TA.AperFunction,Conductor*%
%ADD32C,1.500000*%
%TD*%
%TA.AperFunction,Profile*%
%ADD33C,0.200000*%
%TD*%
G04 APERTURE END LIST*
D10*
X145400000Y-121950000D03*
X145400000Y-119450000D03*
D11*
X149725000Y-119925000D03*
D10*
X149725000Y-121925000D03*
D12*
X191150000Y-132575000D03*
D13*
X191150000Y-132575000D03*
D12*
X191275000Y-78825000D03*
D13*
X191275000Y-78825000D03*
D14*
X165400000Y-121550000D03*
D15*
X167940000Y-121550000D03*
X170480000Y-121550000D03*
D11*
X188575000Y-125250000D03*
D16*
X188575000Y-122710000D03*
X188575000Y-120170000D03*
X188575000Y-117630000D03*
X188575000Y-115090000D03*
X188575000Y-112550000D03*
X188575000Y-110010000D03*
X188575000Y-107470000D03*
X175875000Y-107470000D03*
X175875000Y-110010000D03*
X175875000Y-112550000D03*
X175875000Y-115090000D03*
X175875000Y-117630000D03*
X175875000Y-120170000D03*
X175875000Y-122710000D03*
X175875000Y-125250000D03*
D17*
X163000000Y-128850000D03*
D18*
X163000000Y-131390000D03*
X163000000Y-133930000D03*
D12*
X141400000Y-132575000D03*
D13*
X141400000Y-132575000D03*
D19*
X172045000Y-92900000D03*
D20*
X170775000Y-92900000D03*
X169505000Y-92900000D03*
D21*
X192225000Y-120250000D03*
D22*
X192225000Y-117750000D03*
X192225000Y-115250000D03*
X192225000Y-112750000D03*
D11*
X155575000Y-128925000D03*
D10*
X155575000Y-131425000D03*
X151875000Y-104150000D03*
D16*
X151875000Y-111770000D03*
D23*
X148550000Y-86100000D03*
D24*
X148550000Y-83560000D03*
D25*
X154480000Y-88800000D03*
D26*
X154480000Y-91340000D03*
X154480000Y-93880000D03*
X154480000Y-96420000D03*
X154480000Y-98960000D03*
X154480000Y-101500000D03*
X154480000Y-104040000D03*
X154480000Y-106580000D03*
X154480000Y-109120000D03*
X154480000Y-111660000D03*
X154480000Y-114200000D03*
X154480000Y-116740000D03*
X154480000Y-119280000D03*
X154480000Y-121820000D03*
X162100000Y-121820000D03*
X162100000Y-119280000D03*
X162100000Y-116740000D03*
X162100000Y-114200000D03*
X162100000Y-111660000D03*
X162100000Y-109120000D03*
X162100000Y-106580000D03*
X162100000Y-104040000D03*
X162100000Y-101500000D03*
X162100000Y-98960000D03*
X162100000Y-96420000D03*
X162100000Y-93880000D03*
X162100000Y-91340000D03*
X162100000Y-88800000D03*
D10*
X159950000Y-132065000D03*
D16*
X159950000Y-124445000D03*
D11*
X188600000Y-103545000D03*
D16*
X188600000Y-101005000D03*
X188600000Y-98465000D03*
X188600000Y-95925000D03*
X188600000Y-93385000D03*
X188600000Y-90845000D03*
X188600000Y-88305000D03*
X188600000Y-85765000D03*
X175900000Y-85765000D03*
X175900000Y-88305000D03*
X175900000Y-90845000D03*
X175900000Y-93385000D03*
X175900000Y-95925000D03*
X175900000Y-98465000D03*
X175900000Y-101005000D03*
X175900000Y-103545000D03*
D10*
X149550000Y-104225000D03*
D16*
X149550000Y-111845000D03*
D10*
X165325000Y-97225000D03*
D16*
X172945000Y-97225000D03*
D10*
X171375000Y-107570000D03*
D16*
X171375000Y-99950000D03*
D27*
X150650000Y-128825000D03*
D28*
X150650000Y-131325000D03*
D12*
X141375000Y-78825000D03*
D13*
X141375000Y-78825000D03*
D17*
X167925000Y-128840000D03*
D18*
X167925000Y-131380000D03*
X167925000Y-133920000D03*
D29*
X166300000Y-109250000D03*
D22*
X166300000Y-111750000D03*
X166300000Y-114250000D03*
X166300000Y-116750000D03*
D14*
X139525000Y-115025000D03*
D30*
X139525000Y-112485000D03*
X142065000Y-115025000D03*
X142065000Y-112485000D03*
X144605000Y-115025000D03*
X144605000Y-112485000D03*
X147145000Y-115025000D03*
X147145000Y-112485000D03*
D10*
X172500000Y-85700000D03*
D16*
X164880000Y-85700000D03*
D21*
X192275000Y-98545000D03*
D22*
X192275000Y-96045000D03*
X192275000Y-93545000D03*
X192275000Y-91045000D03*
D10*
X149985000Y-92425000D03*
D16*
X142365000Y-92425000D03*
D14*
X165350000Y-94100000D03*
D15*
X165350000Y-91560000D03*
X165350000Y-89020000D03*
D31*
X161127214Y-87400000D02*
X158675000Y-89852214D01*
D32*
X162895000Y-131495000D02*
X163000000Y-131390000D01*
X189145000Y-103545000D02*
X191475000Y-105875000D01*
D31*
X165350000Y-89020000D02*
X163730000Y-87400000D01*
D32*
X179995000Y-131380000D02*
X167925000Y-131380000D01*
X163000000Y-131390000D02*
X160625000Y-131390000D01*
D31*
X166300000Y-117370000D02*
X170480000Y-121550000D01*
X167585000Y-124445000D02*
X159950000Y-124445000D01*
D32*
X160625000Y-131390000D02*
X160590000Y-131425000D01*
D31*
X166800000Y-90470000D02*
X166800000Y-100831572D01*
X145425000Y-121925000D02*
X145400000Y-121950000D01*
D32*
X167915000Y-131390000D02*
X167925000Y-131380000D01*
D31*
X149725000Y-121925000D02*
X154375000Y-121925000D01*
X149700000Y-121950000D02*
X149725000Y-121925000D01*
D32*
X159025000Y-131425000D02*
X155575000Y-131425000D01*
X159950000Y-132065000D02*
X159310000Y-131425000D01*
X188575000Y-110010000D02*
X185250000Y-113335000D01*
X150650000Y-131325000D02*
X155475000Y-131325000D01*
X163000000Y-131390000D02*
X167915000Y-131390000D01*
D31*
X158675000Y-89852214D02*
X158675000Y-123170000D01*
D32*
X191475000Y-105875000D02*
X191475000Y-107110000D01*
X185250000Y-126125000D02*
X179995000Y-131380000D01*
D31*
X145400000Y-121950000D02*
X139525000Y-116075000D01*
D32*
X188600000Y-103545000D02*
X189145000Y-103545000D01*
X185250000Y-113335000D02*
X185250000Y-121925000D01*
D31*
X163730000Y-87400000D02*
X161127214Y-87400000D01*
D32*
X155475000Y-131325000D02*
X155575000Y-131425000D01*
X188600000Y-88305000D02*
X185450000Y-91455000D01*
D31*
X166800000Y-100831572D02*
X171375000Y-105406572D01*
D32*
X185450000Y-91455000D02*
X185450000Y-100395000D01*
X160590000Y-131425000D02*
X159025000Y-131425000D01*
X160625000Y-131390000D02*
X159950000Y-132065000D01*
X185450000Y-100395000D02*
X188600000Y-103545000D01*
D31*
X145400000Y-121950000D02*
X149700000Y-121950000D01*
X170480000Y-121550000D02*
X167585000Y-124445000D01*
X171375000Y-105406572D02*
X171375000Y-107570000D01*
D32*
X185250000Y-121925000D02*
X185250000Y-126125000D01*
D31*
X165350000Y-89020000D02*
X166800000Y-90470000D01*
X159950000Y-124445000D02*
X157105000Y-124445000D01*
X166300000Y-116750000D02*
X166300000Y-117370000D01*
D32*
X159310000Y-131425000D02*
X159025000Y-131425000D01*
D31*
X158675000Y-123170000D02*
X159950000Y-124445000D01*
X139525000Y-116075000D02*
X139525000Y-115025000D01*
X157105000Y-124445000D02*
X154480000Y-121820000D01*
X154375000Y-121925000D02*
X154480000Y-121820000D01*
D32*
X191475000Y-107110000D02*
X188575000Y-110010000D01*
X185250000Y-121925000D02*
X188575000Y-125250000D01*
X188600000Y-98465000D02*
X192195000Y-98465000D01*
X192195000Y-98465000D02*
X192275000Y-98545000D01*
X192275000Y-96045000D02*
X188720000Y-96045000D01*
X188720000Y-96045000D02*
X188600000Y-95925000D01*
X188600000Y-93385000D02*
X192115000Y-93385000D01*
X192115000Y-93385000D02*
X192275000Y-93545000D01*
X188800000Y-91045000D02*
X188600000Y-90845000D01*
X192275000Y-91045000D02*
X188800000Y-91045000D01*
X182050000Y-113995000D02*
X188575000Y-107470000D01*
X150750000Y-128925000D02*
X150650000Y-128825000D01*
X167925000Y-128840000D02*
X177210000Y-128840000D01*
X182050000Y-92315000D02*
X188600000Y-85765000D01*
X163000000Y-128850000D02*
X155650000Y-128850000D01*
X182050000Y-113995000D02*
X182050000Y-92315000D01*
X155575000Y-128925000D02*
X150750000Y-128925000D01*
X182050000Y-124000000D02*
X182050000Y-113995000D01*
X167925000Y-128840000D02*
X163010000Y-128840000D01*
X177210000Y-128840000D02*
X182050000Y-124000000D01*
X155650000Y-128850000D02*
X155575000Y-128925000D01*
X163010000Y-128840000D02*
X163000000Y-128850000D01*
D31*
X172565000Y-85765000D02*
X172500000Y-85700000D01*
X172500000Y-85700000D02*
X169505000Y-88695000D01*
X178500000Y-88365000D02*
X178500000Y-104845000D01*
X175900000Y-85765000D02*
X172565000Y-85765000D01*
X178500000Y-104845000D02*
X175875000Y-107470000D01*
X169505000Y-88695000D02*
X169505000Y-92900000D01*
X175900000Y-85765000D02*
X178500000Y-88365000D01*
X179500000Y-114005000D02*
X175875000Y-117630000D01*
X154480000Y-116740000D02*
X151295000Y-119925000D01*
X173015000Y-101350000D02*
X175900000Y-98465000D01*
X166362500Y-135482500D02*
X151143286Y-135482500D01*
X145875000Y-119925000D02*
X145400000Y-119450000D01*
X167800000Y-98347786D02*
X170802214Y-101350000D01*
X167925000Y-133920000D02*
X166362500Y-135482500D01*
X139525000Y-98175000D02*
X139525000Y-112485000D01*
X151940000Y-119280000D02*
X154480000Y-119280000D01*
X179500000Y-87200000D02*
X179500000Y-114005000D01*
X151143286Y-135482500D02*
X138000000Y-122339214D01*
X175900000Y-98465000D02*
X175900000Y-95925000D01*
X158288528Y-83560000D02*
X148550000Y-83560000D01*
X160428528Y-85796472D02*
X157375000Y-88850000D01*
X164880000Y-85700000D02*
X166280000Y-84300000D01*
X138000000Y-122339214D02*
X138000000Y-113160000D01*
X157375000Y-113845000D02*
X154480000Y-116740000D01*
X149725000Y-119925000D02*
X145875000Y-119925000D01*
X151295000Y-119925000D02*
X149725000Y-119925000D01*
X170802214Y-101350000D02*
X173015000Y-101350000D01*
X175875000Y-120170000D02*
X175875000Y-117630000D01*
X138675000Y-112485000D02*
X139525000Y-112485000D01*
X160428528Y-85700000D02*
X158288528Y-83560000D01*
X160428528Y-85700000D02*
X160428528Y-85796472D01*
X151295000Y-119925000D02*
X151940000Y-119280000D01*
X154140000Y-83560000D02*
X139525000Y-98175000D01*
X157375000Y-88850000D02*
X157375000Y-113845000D01*
X164880000Y-85700000D02*
X160428528Y-85700000D01*
X166280000Y-84300000D02*
X176600000Y-84300000D01*
X138000000Y-113160000D02*
X138675000Y-112485000D01*
X158288528Y-83560000D02*
X154140000Y-83560000D01*
X176600000Y-84300000D02*
X179500000Y-87200000D01*
X164880000Y-85700000D02*
X167800000Y-88620000D01*
X167800000Y-88620000D02*
X167800000Y-98347786D01*
X177500000Y-102605000D02*
X175900000Y-101005000D01*
X174475000Y-114057000D02*
X168950000Y-108532000D01*
X174475000Y-106897214D02*
X174475000Y-114057000D01*
X174475000Y-121310000D02*
X174475000Y-114057000D01*
X175875000Y-122710000D02*
X174475000Y-121310000D01*
X176375000Y-105495000D02*
X175877214Y-105495000D01*
X168950000Y-105810000D02*
X162100000Y-98960000D01*
X168950000Y-108532000D02*
X168950000Y-105810000D01*
X177500000Y-104370000D02*
X177500000Y-102605000D01*
X176375000Y-105495000D02*
X177500000Y-104370000D01*
X175877214Y-105495000D02*
X174475000Y-106897214D01*
X175510786Y-103545000D02*
X172900000Y-106155786D01*
X165400000Y-100845786D02*
X165400000Y-99720000D01*
X169950000Y-108117786D02*
X169950000Y-105395786D01*
X165400000Y-99720000D02*
X162100000Y-96420000D01*
X172005000Y-108970000D02*
X170802214Y-108970000D01*
X172900000Y-106155786D02*
X172900000Y-108075000D01*
X175900000Y-103545000D02*
X175510786Y-103545000D01*
X170802214Y-108970000D02*
X169950000Y-108117786D01*
X169950000Y-105395786D02*
X165400000Y-100845786D01*
X172900000Y-108075000D02*
X172005000Y-108970000D01*
D32*
X188575000Y-120170000D02*
X192145000Y-120170000D01*
X192145000Y-120170000D02*
X192225000Y-120250000D01*
X188695000Y-117750000D02*
X188575000Y-117630000D01*
X192225000Y-117750000D02*
X188695000Y-117750000D01*
X188735000Y-115250000D02*
X188575000Y-115090000D01*
X192225000Y-115250000D02*
X188735000Y-115250000D01*
X192225000Y-112750000D02*
X188775000Y-112750000D01*
X188775000Y-112750000D02*
X188575000Y-112550000D01*
D31*
X173475000Y-114471214D02*
X173475000Y-122850000D01*
X173475000Y-122850000D02*
X175875000Y-125250000D01*
X167875000Y-107275000D02*
X167875000Y-108871214D01*
X167875000Y-108871214D02*
X173475000Y-114471214D01*
X162100000Y-101500000D02*
X167875000Y-107275000D01*
X147970000Y-109120000D02*
X144605000Y-112485000D01*
X154480000Y-109120000D02*
X147970000Y-109120000D01*
X147970000Y-106580000D02*
X142065000Y-112485000D01*
X154480000Y-106580000D02*
X147970000Y-106580000D01*
X172045000Y-96152214D02*
X171375000Y-96822214D01*
X171375000Y-96822214D02*
X171375000Y-99950000D01*
X172045000Y-92900000D02*
X172045000Y-96152214D01*
X148550000Y-86240000D02*
X148550000Y-86100000D01*
X142365000Y-92425000D02*
X148550000Y-86240000D01*
X164370000Y-121550000D02*
X162100000Y-119280000D01*
X165400000Y-121550000D02*
X164370000Y-121550000D01*
X163355000Y-123075000D02*
X162100000Y-121820000D01*
X167940000Y-121550000D02*
X167940000Y-122395344D01*
X167260344Y-123075000D02*
X163355000Y-123075000D01*
X167940000Y-122395344D02*
X167260344Y-123075000D01*
X172945000Y-97225000D02*
X173507129Y-96662871D01*
X171271472Y-91550000D02*
X170775000Y-92046472D01*
X170775000Y-92046472D02*
X170775000Y-92900000D01*
X173507129Y-96662871D02*
X173507129Y-92238601D01*
X172818528Y-91550000D02*
X171271472Y-91550000D01*
X173507129Y-92238601D02*
X172818528Y-91550000D01*
X154480000Y-88800000D02*
X153610000Y-88800000D01*
X153610000Y-88800000D02*
X149985000Y-92425000D01*
X162100000Y-93880000D02*
X162100000Y-94000000D01*
X162100000Y-94000000D02*
X165325000Y-97225000D01*
X149550000Y-111845000D02*
X149550000Y-112620000D01*
X149550000Y-112620000D02*
X147145000Y-115025000D01*
X148375000Y-116575000D02*
X146155000Y-116575000D01*
X151875000Y-111770000D02*
X151875000Y-113075000D01*
X146155000Y-116575000D02*
X144605000Y-115025000D01*
X151875000Y-113075000D02*
X148375000Y-116575000D01*
X154480000Y-114200000D02*
X151105000Y-117575000D01*
X144615000Y-117575000D02*
X142065000Y-115025000D01*
X151105000Y-117575000D02*
X144615000Y-117575000D01*
X166300000Y-114250000D02*
X164590000Y-114250000D01*
X164590000Y-114250000D02*
X162100000Y-116740000D01*
X164550000Y-111750000D02*
X162100000Y-114200000D01*
X166300000Y-111750000D02*
X164550000Y-111750000D01*
X162100000Y-91340000D02*
X162590000Y-91340000D01*
X162590000Y-91340000D02*
X165350000Y-94100000D01*
X165350000Y-91560000D02*
X164860000Y-91560000D01*
X164860000Y-91560000D02*
X162100000Y-88800000D01*
X171930000Y-122220000D02*
X166862500Y-127287500D01*
X171930000Y-122220000D02*
X171930000Y-114880000D01*
X151005000Y-133930000D02*
X163000000Y-133930000D01*
X166862500Y-127287500D02*
X149635418Y-127287500D01*
X149635418Y-127287500D02*
X149050000Y-127872918D01*
X149050000Y-131975000D02*
X151005000Y-133930000D01*
X171930000Y-114880000D02*
X166300000Y-109250000D01*
X149050000Y-127872918D02*
X149050000Y-131975000D01*
X154480000Y-98960000D02*
X149550000Y-103890000D01*
X149550000Y-103890000D02*
X149550000Y-104225000D01*
X154480000Y-101500000D02*
X154480000Y-101545000D01*
X154480000Y-101545000D02*
X151875000Y-104150000D01*
D33*
X137225000Y-73600000D02*
X195475000Y-73600000D01*
X195475000Y-136750000D01*
X137225000Y-136750000D01*
X137225000Y-73600000D01*
M02*
