%TF.GenerationSoftware,KiCad,Pcbnew,7.0.10-7.0.10~ubuntu22.04.1*%
%TF.CreationDate,2024-04-21T22:18:57+02:00*%
%TF.ProjectId,axis_control_board,61786973-5f63-46f6-9e74-726f6c5f626f,rev?*%
%TF.SameCoordinates,Original*%
%TF.FileFunction,Copper,L2,Bot*%
%TF.FilePolarity,Positive*%
%FSLAX46Y46*%
G04 Gerber Fmt 4.6, Leading zero omitted, Abs format (unit mm)*
G04 Created by KiCad (PCBNEW 7.0.10-7.0.10~ubuntu22.04.1) date 2024-04-21 22:18:57*
%MOMM*%
%LPD*%
G01*
G04 APERTURE LIST*
G04 Aperture macros list*
%AMRoundRect*
0 Rectangle with rounded corners*
0 $1 Rounding radius*
0 $2 $3 $4 $5 $6 $7 $8 $9 X,Y pos of 4 corners*
0 Add a 4 corners polygon primitive as box body*
4,1,4,$2,$3,$4,$5,$6,$7,$8,$9,$2,$3,0*
0 Add four circle primitives for the rounded corners*
1,1,$1+$1,$2,$3*
1,1,$1+$1,$4,$5*
1,1,$1+$1,$6,$7*
1,1,$1+$1,$8,$9*
0 Add four rect primitives between the rounded corners*
20,1,$1+$1,$2,$3,$4,$5,0*
20,1,$1+$1,$4,$5,$6,$7,0*
20,1,$1+$1,$6,$7,$8,$9,0*
20,1,$1+$1,$8,$9,$2,$3,0*%
G04 Aperture macros list end*
%ADD10C,0.800000*%
%TA.AperFunction,NonConductor*%
%ADD11C,0.800000*%
%TD*%
%TA.AperFunction,ComponentPad*%
%ADD12C,1.600000*%
%TD*%
%TA.AperFunction,ComponentPad*%
%ADD13R,1.600000X1.600000*%
%TD*%
%TA.AperFunction,ComponentPad*%
%ADD14C,3.600000*%
%TD*%
%TA.AperFunction,ComponentPad*%
%ADD15R,1.700000X1.700000*%
%TD*%
%TA.AperFunction,ComponentPad*%
%ADD16O,1.700000X1.700000*%
%TD*%
%TA.AperFunction,ComponentPad*%
%ADD17O,1.600000X1.600000*%
%TD*%
%TA.AperFunction,ComponentPad*%
%ADD18R,2.000000X1.905000*%
%TD*%
%TA.AperFunction,ComponentPad*%
%ADD19O,2.000000X1.905000*%
%TD*%
%TA.AperFunction,ComponentPad*%
%ADD20R,1.050000X1.500000*%
%TD*%
%TA.AperFunction,ComponentPad*%
%ADD21O,1.050000X1.500000*%
%TD*%
%TA.AperFunction,ComponentPad*%
%ADD22RoundRect,0.250000X0.725000X-0.600000X0.725000X0.600000X-0.725000X0.600000X-0.725000X-0.600000X0*%
%TD*%
%TA.AperFunction,ComponentPad*%
%ADD23O,1.950000X1.700000*%
%TD*%
%TA.AperFunction,ComponentPad*%
%ADD24R,1.800000X1.800000*%
%TD*%
%TA.AperFunction,ComponentPad*%
%ADD25C,1.800000*%
%TD*%
%TA.AperFunction,ComponentPad*%
%ADD26R,2.400000X1.600000*%
%TD*%
%TA.AperFunction,ComponentPad*%
%ADD27O,2.400000X1.600000*%
%TD*%
%TA.AperFunction,ComponentPad*%
%ADD28RoundRect,0.250000X-0.750000X0.600000X-0.750000X-0.600000X0.750000X-0.600000X0.750000X0.600000X0*%
%TD*%
%TA.AperFunction,ComponentPad*%
%ADD29O,2.000000X1.700000*%
%TD*%
%TA.AperFunction,ComponentPad*%
%ADD30RoundRect,0.250000X-0.725000X0.600000X-0.725000X-0.600000X0.725000X-0.600000X0.725000X0.600000X0*%
%TD*%
%TA.AperFunction,ComponentPad*%
%ADD31C,1.700000*%
%TD*%
%TA.AperFunction,Profile*%
%ADD32C,0.200000*%
%TD*%
G04 APERTURE END LIST*
D10*
D11*
X148453571Y-81013400D02*
X149310714Y-81299114D01*
X149310714Y-81299114D02*
X150739285Y-81299114D01*
X150739285Y-81299114D02*
X151310714Y-81013400D01*
X151310714Y-81013400D02*
X151596428Y-80727685D01*
X151596428Y-80727685D02*
X151882142Y-80156257D01*
X151882142Y-80156257D02*
X151882142Y-79584828D01*
X151882142Y-79584828D02*
X151596428Y-79013400D01*
X151596428Y-79013400D02*
X151310714Y-78727685D01*
X151310714Y-78727685D02*
X150739285Y-78441971D01*
X150739285Y-78441971D02*
X149596428Y-78156257D01*
X149596428Y-78156257D02*
X149024999Y-77870542D01*
X149024999Y-77870542D02*
X148739285Y-77584828D01*
X148739285Y-77584828D02*
X148453571Y-77013400D01*
X148453571Y-77013400D02*
X148453571Y-76441971D01*
X148453571Y-76441971D02*
X148739285Y-75870542D01*
X148739285Y-75870542D02*
X149024999Y-75584828D01*
X149024999Y-75584828D02*
X149596428Y-75299114D01*
X149596428Y-75299114D02*
X151024999Y-75299114D01*
X151024999Y-75299114D02*
X151882142Y-75584828D01*
X154453571Y-81299114D02*
X154453571Y-75299114D01*
X157310714Y-81299114D02*
X157310714Y-75299114D01*
X157310714Y-75299114D02*
X159310714Y-79584828D01*
X159310714Y-79584828D02*
X161310714Y-75299114D01*
X161310714Y-75299114D02*
X161310714Y-81299114D01*
X163882143Y-79584828D02*
X166739286Y-79584828D01*
X163310714Y-81299114D02*
X165310714Y-75299114D01*
X165310714Y-75299114D02*
X167310714Y-81299114D01*
X172739285Y-80727685D02*
X172453571Y-81013400D01*
X172453571Y-81013400D02*
X171596428Y-81299114D01*
X171596428Y-81299114D02*
X171025000Y-81299114D01*
X171025000Y-81299114D02*
X170167857Y-81013400D01*
X170167857Y-81013400D02*
X169596428Y-80441971D01*
X169596428Y-80441971D02*
X169310714Y-79870542D01*
X169310714Y-79870542D02*
X169025000Y-78727685D01*
X169025000Y-78727685D02*
X169025000Y-77870542D01*
X169025000Y-77870542D02*
X169310714Y-76727685D01*
X169310714Y-76727685D02*
X169596428Y-76156257D01*
X169596428Y-76156257D02*
X170167857Y-75584828D01*
X170167857Y-75584828D02*
X171025000Y-75299114D01*
X171025000Y-75299114D02*
X171596428Y-75299114D01*
X171596428Y-75299114D02*
X172453571Y-75584828D01*
X172453571Y-75584828D02*
X172739285Y-75870542D01*
X175025000Y-79584828D02*
X177882143Y-79584828D01*
X174453571Y-81299114D02*
X176453571Y-75299114D01*
X176453571Y-75299114D02*
X178453571Y-81299114D01*
X180167857Y-81013400D02*
X181025000Y-81299114D01*
X181025000Y-81299114D02*
X182453571Y-81299114D01*
X182453571Y-81299114D02*
X183025000Y-81013400D01*
X183025000Y-81013400D02*
X183310714Y-80727685D01*
X183310714Y-80727685D02*
X183596428Y-80156257D01*
X183596428Y-80156257D02*
X183596428Y-79584828D01*
X183596428Y-79584828D02*
X183310714Y-79013400D01*
X183310714Y-79013400D02*
X183025000Y-78727685D01*
X183025000Y-78727685D02*
X182453571Y-78441971D01*
X182453571Y-78441971D02*
X181310714Y-78156257D01*
X181310714Y-78156257D02*
X180739285Y-77870542D01*
X180739285Y-77870542D02*
X180453571Y-77584828D01*
X180453571Y-77584828D02*
X180167857Y-77013400D01*
X180167857Y-77013400D02*
X180167857Y-76441971D01*
X180167857Y-76441971D02*
X180453571Y-75870542D01*
X180453571Y-75870542D02*
X180739285Y-75584828D01*
X180739285Y-75584828D02*
X181310714Y-75299114D01*
X181310714Y-75299114D02*
X182739285Y-75299114D01*
X182739285Y-75299114D02*
X183596428Y-75584828D01*
D12*
X145400000Y-121950000D03*
X145400000Y-119450000D03*
D13*
X149725000Y-119925000D03*
D12*
X149725000Y-121925000D03*
D14*
X191150000Y-132575000D03*
X191275000Y-78825000D03*
D15*
X165400000Y-121550000D03*
D16*
X167940000Y-121550000D03*
X170480000Y-121550000D03*
D13*
X188575000Y-125250000D03*
D17*
X188575000Y-122710000D03*
X188575000Y-120170000D03*
X188575000Y-117630000D03*
X188575000Y-115090000D03*
X188575000Y-112550000D03*
X188575000Y-110010000D03*
X188575000Y-107470000D03*
X175875000Y-107470000D03*
X175875000Y-110010000D03*
X175875000Y-112550000D03*
X175875000Y-115090000D03*
X175875000Y-117630000D03*
X175875000Y-120170000D03*
X175875000Y-122710000D03*
X175875000Y-125250000D03*
D18*
X163000000Y-128850000D03*
D19*
X163000000Y-131390000D03*
X163000000Y-133930000D03*
D14*
X141400000Y-132575000D03*
D20*
X172045000Y-92900000D03*
D21*
X170775000Y-92900000D03*
X169505000Y-92900000D03*
D22*
X192225000Y-120250000D03*
D23*
X192225000Y-117750000D03*
X192225000Y-115250000D03*
X192225000Y-112750000D03*
D13*
X155575000Y-128925000D03*
D12*
X155575000Y-131425000D03*
X151875000Y-104150000D03*
D17*
X151875000Y-111770000D03*
D24*
X148550000Y-86100000D03*
D25*
X148550000Y-83560000D03*
D26*
X154480000Y-88800000D03*
D27*
X154480000Y-91340000D03*
X154480000Y-93880000D03*
X154480000Y-96420000D03*
X154480000Y-98960000D03*
X154480000Y-101500000D03*
X154480000Y-104040000D03*
X154480000Y-106580000D03*
X154480000Y-109120000D03*
X154480000Y-111660000D03*
X154480000Y-114200000D03*
X154480000Y-116740000D03*
X154480000Y-119280000D03*
X154480000Y-121820000D03*
X162100000Y-121820000D03*
X162100000Y-119280000D03*
X162100000Y-116740000D03*
X162100000Y-114200000D03*
X162100000Y-111660000D03*
X162100000Y-109120000D03*
X162100000Y-106580000D03*
X162100000Y-104040000D03*
X162100000Y-101500000D03*
X162100000Y-98960000D03*
X162100000Y-96420000D03*
X162100000Y-93880000D03*
X162100000Y-91340000D03*
X162100000Y-88800000D03*
D12*
X159950000Y-132065000D03*
D17*
X159950000Y-124445000D03*
D13*
X188600000Y-103545000D03*
D17*
X188600000Y-101005000D03*
X188600000Y-98465000D03*
X188600000Y-95925000D03*
X188600000Y-93385000D03*
X188600000Y-90845000D03*
X188600000Y-88305000D03*
X188600000Y-85765000D03*
X175900000Y-85765000D03*
X175900000Y-88305000D03*
X175900000Y-90845000D03*
X175900000Y-93385000D03*
X175900000Y-95925000D03*
X175900000Y-98465000D03*
X175900000Y-101005000D03*
X175900000Y-103545000D03*
D12*
X149550000Y-104225000D03*
D17*
X149550000Y-111845000D03*
D12*
X165325000Y-97225000D03*
D17*
X172945000Y-97225000D03*
D12*
X171375000Y-107570000D03*
D17*
X171375000Y-99950000D03*
D28*
X150650000Y-128825000D03*
D29*
X150650000Y-131325000D03*
D14*
X141375000Y-78825000D03*
D18*
X167925000Y-128840000D03*
D19*
X167925000Y-131380000D03*
X167925000Y-133920000D03*
D30*
X166300000Y-109250000D03*
D23*
X166300000Y-111750000D03*
X166300000Y-114250000D03*
X166300000Y-116750000D03*
D15*
X139525000Y-115025000D03*
D31*
X139525000Y-112485000D03*
X142065000Y-115025000D03*
X142065000Y-112485000D03*
X144605000Y-115025000D03*
X144605000Y-112485000D03*
X147145000Y-115025000D03*
X147145000Y-112485000D03*
D12*
X172500000Y-85700000D03*
D17*
X164880000Y-85700000D03*
D22*
X192275000Y-98545000D03*
D23*
X192275000Y-96045000D03*
X192275000Y-93545000D03*
X192275000Y-91045000D03*
D12*
X149985000Y-92425000D03*
D17*
X142365000Y-92425000D03*
D15*
X165350000Y-94100000D03*
D16*
X165350000Y-91560000D03*
X165350000Y-89020000D03*
D32*
X137225000Y-73600000D02*
X195475000Y-73600000D01*
X195475000Y-136750000D01*
X137225000Y-136750000D01*
X137225000Y-73600000D01*
M02*
