%TF.GenerationSoftware,KiCad,Pcbnew,7.0.10-7.0.10~ubuntu22.04.1*%
%TF.CreationDate,2024-04-21T13:32:48+02:00*%
%TF.ProjectId,axis_control_board,61786973-5f63-46f6-9e74-726f6c5f626f,rev?*%
%TF.SameCoordinates,Original*%
%TF.FileFunction,Copper,L1,Top*%
%TF.FilePolarity,Positive*%
%FSLAX46Y46*%
G04 Gerber Fmt 4.6, Leading zero omitted, Abs format (unit mm)*
G04 Created by KiCad (PCBNEW 7.0.10-7.0.10~ubuntu22.04.1) date 2024-04-21 13:32:48*
%MOMM*%
%LPD*%
G01*
G04 APERTURE LIST*
G04 Aperture macros list*
%AMRoundRect*0 ,Rectangle with rounded corners *0 ,$1 Rounding radius *0 ,$2 $3 $4 $5 $6 $7 $8 $9 X,Y pos of 4 corners *0 ,Add a 4 corners polygon primitive as box body *4,1,4,-0.725,0.6,-0.725,-0.6,
0.725,-0.6,
0.725,0.6,
-0.725,0.6,0.0*0 ,Add four circle primitives for the rounded corners *1,1,0.5,-0.725,0.6*1,1,0.5,-0.725,-0.6*1,1,0.5,0.725,-0.6*1,1,0.5,0.725,0.6*0 ,Add four rect primitives between the rounded corners *20,1,0.5,-0.725,0.6,-0.725,-0.6,0.0*20,1,0.5,-0.725,-0.6,0.725,-0.6,0.0*20,1,0.5,0.725,-0.6,0.725,0.6,0.0*20,1,0.5,0.725,0.6,-0.725,0.6,0.0*%
G04 Aperture macros list end*
%TA.AperFunction,ComponentPad*%
%ADD10C,1.6*%
%TD*%
%TA.AperFunction,ComponentPad*%
%ADD11R,1.6X1.6*%
%TD*%
%TA.AperFunction,ComponentPad*%
%ADD12C,3.6*%
%TD*%
%TA.AperFunction,ConnectorPad*%
%ADD13C,6.4*%
%TD*%
%TA.AperFunction,ComponentPad*%
%ADD14R,1.7X1.7*%
%TD*%
%TA.AperFunction,ComponentPad*%
%ADD15O,1.7X1.7*%
%TD*%
%TA.AperFunction,ComponentPad*%
%ADD16O,1.6X1.6*%
%TD*%
%TA.AperFunction,ComponentPad*%
%ADD17R,1.905X2*%
%TD*%
%TA.AperFunction,ComponentPad*%
%ADD18O,1.905X2*%
%TD*%
%TA.AperFunction,ComponentPad*%
%ADD19R,1.5X1.05*%
%TD*%
%TA.AperFunction,ComponentPad*%
%ADD20O,1.5X1.05*%
%TD*%
%TA.AperFunction,ComponentPad*%
%ADD21RoundRect,0.725X0.25*%
%TD*%
%TA.AperFunction,ComponentPad*%
%ADD22O,1.7X1.95*%
%TD*%
%TA.AperFunction,ComponentPad*%
%ADD23R,1.8X1.8*%
%TD*%
%TA.AperFunction,ComponentPad*%
%ADD24C,1.8*%
%TD*%
%TA.AperFunction,ComponentPad*%
%ADD25R,1.6X2.4*%
%TD*%
%TA.AperFunction,ComponentPad*%
%ADD26O,1.6X2.4*%
%TD*%
%TA.AperFunction,ComponentPad*%
%ADD27RoundRect,-0.75X0.25*%
%TD*%
%TA.AperFunction,ComponentPad*%
%ADD28O,1.7X2*%
%TD*%
%TA.AperFunction,ComponentPad*%
%ADD29RoundRect,-0.725X0.25*%
%TD*%
%TA.AperFunction,ComponentPad*%
%ADD30C,1.7*%
%TD*%
%TA.AperFunction,Conductor*%
%ADD31C,0.8*%
%TD*%
%TA.AperFunction,Conductor*%
%ADD32C,1.5*%
%TD*%
%TA.AperFunction,Profile*%
%ADD33C,0.2*%
%TD*%
G04 APERTURE END LIST*
D10*
X50350000Y52075000D03*
X47850000Y52075000D03*
D11*
X48325000Y47750000D03*
D10*
X50325000Y47750000D03*
D12*
X60975000Y6325000D03*
D13*
X60975000Y6325000D03*
D12*
X7225000Y6200000D03*
D13*
X7225000Y6200000D03*
D14*
X49950000Y32075000D03*
D15*
X49950000Y29535000D03*
X49950000Y26995000D03*
D11*
X53650000Y8900000D03*
D16*
X51110000Y8900000D03*
X48570000Y8900000D03*
X46030000Y8900000D03*
X43490000Y8900000D03*
X40950000Y8900000D03*
X38410000Y8900000D03*
X35870000Y8900000D03*
X35870000Y21600000D03*
X38410000Y21600000D03*
X40950000Y21600000D03*
X43490000Y21600000D03*
X46030000Y21600000D03*
X48570000Y21600000D03*
X51110000Y21600000D03*
X53650000Y21600000D03*
D17*
X57250000Y34475000D03*
D18*
X59790000Y34475000D03*
X62330000Y34475000D03*
D12*
X60975000Y56075000D03*
D13*
X60975000Y56075000D03*
D19*
X21300000Y25430000D03*
D20*
X21300000Y26700000D03*
X21300000Y27970000D03*
D21*
X48650000Y5250000D03*
D22*
X46150000Y5250000D03*
X43650000Y5250000D03*
X41150000Y5250000D03*
D11*
X57325000Y41900000D03*
D10*
X59825000Y41900000D03*
X32550000Y45600000D03*
D16*
X40170000Y45600000D03*
D23*
X14500000Y48925000D03*
D24*
X11960000Y48925000D03*
D25*
X17200000Y42995000D03*
D26*
X19740000Y42995000D03*
X22280000Y42995000D03*
X24820000Y42995000D03*
X27360000Y42995000D03*
X29900000Y42995000D03*
X32440000Y42995000D03*
X34980000Y42995000D03*
X37520000Y42995000D03*
X40060000Y42995000D03*
X42600000Y42995000D03*
X45140000Y42995000D03*
X47680000Y42995000D03*
X50220000Y42995000D03*
X50220000Y35375000D03*
X47680000Y35375000D03*
X45140000Y35375000D03*
X42600000Y35375000D03*
X40060000Y35375000D03*
X37520000Y35375000D03*
X34980000Y35375000D03*
X32440000Y35375000D03*
X29900000Y35375000D03*
X27360000Y35375000D03*
X24820000Y35375000D03*
X22280000Y35375000D03*
X19740000Y35375000D03*
X17200000Y35375000D03*
D10*
X60465000Y37525000D03*
D16*
X52845000Y37525000D03*
D11*
X31945000Y8875000D03*
D16*
X29405000Y8875000D03*
X26865000Y8875000D03*
X24325000Y8875000D03*
X21785000Y8875000D03*
X19245000Y8875000D03*
X16705000Y8875000D03*
X14165000Y8875000D03*
X14165000Y21575000D03*
X16705000Y21575000D03*
X19245000Y21575000D03*
X21785000Y21575000D03*
X24325000Y21575000D03*
X26865000Y21575000D03*
X29405000Y21575000D03*
X31945000Y21575000D03*
D10*
X32625000Y47925000D03*
D16*
X40245000Y47925000D03*
D10*
X25625000Y32150000D03*
D16*
X25625000Y24530000D03*
D10*
X35970000Y26100000D03*
D16*
X28350000Y26100000D03*
D27*
X57225000Y46825000D03*
D28*
X59725000Y46825000D03*
D12*
X7225000Y56100000D03*
D13*
X7225000Y56100000D03*
D17*
X57240000Y29550000D03*
D18*
X59780000Y29550000D03*
X62320000Y29550000D03*
D29*
X37650000Y31175000D03*
D22*
X40150000Y31175000D03*
X42650000Y31175000D03*
X45150000Y31175000D03*
D14*
X43425000Y57950000D03*
D30*
X40885000Y57950000D03*
X43425000Y55410000D03*
X40885000Y55410000D03*
X43425000Y52870000D03*
X40885000Y52870000D03*
X43425000Y50330000D03*
X40885000Y50330000D03*
D10*
X14100000Y24975000D03*
D16*
X14100000Y32595000D03*
D21*
X26945000Y5200000D03*
D22*
X24445000Y5200000D03*
X21945000Y5200000D03*
X19445000Y5200000D03*
D10*
X20825000Y47490000D03*
D16*
X20825000Y55110000D03*
D14*
X22500000Y32125000D03*
D15*
X19960000Y32125000D03*
X17420000Y32125000D03*
D31*
X15800000Y36347790D02*
X18252210Y38800000D01*
D32*
X59895000Y34580000D02*
X59790000Y34475000D01*
X31945000Y8330000D02*
X34275000Y6000000D01*
D31*
X17420000Y32125000D02*
X15800000Y33745000D01*
D32*
X59780000Y17480000D02*
X59780000Y29550000D01*
X59790000Y34475000D02*
X59790000Y36850000D01*
D31*
X45770000Y31175000D02*
X49950000Y26995000D01*
X52845000Y29890000D02*
X52845000Y37525000D01*
D32*
X59790000Y36850000D02*
X59825000Y36885000D01*
D31*
X18870000Y30675000D02*
X29231570Y30675000D01*
X50325000Y52050000D02*
X50350000Y52075000D01*
D32*
X59790000Y29560000D02*
X59780000Y29550000D01*
D31*
X50325000Y47750000D02*
X50325000Y43100000D01*
X50350000Y47775000D02*
X50325000Y47750000D01*
D32*
X59825000Y38450000D02*
X59825000Y41900000D01*
X60465000Y37525000D02*
X59825000Y38165000D01*
X38410000Y8900000D02*
X41735000Y12225000D01*
X59725000Y46825000D02*
X59725000Y42000000D01*
X59790000Y34475000D02*
X59790000Y29560000D01*
D31*
X18252210Y38800000D02*
X51570000Y38800000D01*
D32*
X34275000Y6000000D02*
X35510000Y6000000D01*
X54525000Y12225000D02*
X59780000Y17480000D01*
D31*
X50350000Y52075000D02*
X44475000Y57950000D01*
D32*
X31945000Y8875000D02*
X31945000Y8330000D01*
X41735000Y12225000D02*
X50325000Y12225000D01*
D31*
X15800000Y33745000D02*
X15800000Y36347790D01*
D32*
X59725000Y42000000D02*
X59825000Y41900000D01*
X16705000Y8875000D02*
X19855000Y12025000D01*
D31*
X29231570Y30675000D02*
X33806570Y26100000D01*
D32*
X19855000Y12025000D02*
X28795000Y12025000D01*
X59825000Y36885000D02*
X59825000Y38450000D01*
X59790000Y36850000D02*
X60465000Y37525000D01*
X28795000Y12025000D02*
X31945000Y8875000D01*
D31*
X50350000Y52075000D02*
X50350000Y47775000D01*
X49950000Y26995000D02*
X52845000Y29890000D01*
X33806570Y26100000D02*
X35970000Y26100000D01*
D32*
X50325000Y12225000D02*
X54525000Y12225000D01*
D31*
X17420000Y32125000D02*
X18870000Y30675000D01*
X52845000Y37525000D02*
X52845000Y40370000D01*
X45150000Y31175000D02*
X45770000Y31175000D01*
D32*
X59825000Y38165000D02*
X59825000Y38450000D01*
D31*
X51570000Y38800000D02*
X52845000Y37525000D01*
X44475000Y57950000D02*
X43425000Y57950000D01*
X52845000Y40370000D02*
X50220000Y42995000D01*
X50325000Y43100000D02*
X50220000Y42995000D01*
D32*
X35510000Y6000000D02*
X38410000Y8900000D01*
X50325000Y12225000D02*
X53650000Y8900000D01*
X26865000Y8875000D02*
X26865000Y5280000D01*
X26865000Y5280000D02*
X26945000Y5200000D01*
X24445000Y5200000D02*
X24445000Y8755000D01*
X24445000Y8755000D02*
X24325000Y8875000D01*
X21785000Y8875000D02*
X21785000Y5360000D01*
X21785000Y5360000D02*
X21945000Y5200000D01*
X19445000Y8675000D02*
X19245000Y8875000D01*
X19445000Y5200000D02*
X19445000Y8675000D01*
X42395000Y15425000D02*
X35870000Y8900000D01*
X57325000Y46725000D02*
X57225000Y46825000D01*
X57240000Y29550000D02*
X57240000Y20265000D01*
X20715000Y15425000D02*
X14165000Y8875000D01*
X57250000Y34475000D02*
X57250000Y41825000D01*
X42395000Y15425000D02*
X20715000Y15425000D01*
X57325000Y41900000D02*
X57325000Y46725000D01*
X52400000Y15425000D02*
X42395000Y15425000D01*
X57240000Y29550000D02*
X57240000Y34465000D01*
X57240000Y20265000D02*
X52400000Y15425000D01*
X57250000Y41825000D02*
X57325000Y41900000D01*
X57240000Y34465000D02*
X57250000Y34475000D01*
D31*
X14165000Y24910000D02*
X14100000Y24975000D01*
X14100000Y24975000D02*
X17095000Y27970000D01*
X16765000Y18975000D02*
X33245000Y18975000D01*
X14165000Y21575000D02*
X14165000Y24910000D01*
X33245000Y18975000D02*
X35870000Y21600000D01*
X17095000Y27970000D02*
X21300000Y27970000D01*
X14165000Y21575000D02*
X16765000Y18975000D01*
X42405000Y17975000D02*
X46030000Y21600000D01*
X45140000Y42995000D02*
X48325000Y46180000D01*
X29750000Y24460000D02*
X26865000Y21575000D01*
X63882500Y31112500D02*
X63882500Y46331710D01*
X48325000Y51600000D02*
X47850000Y52075000D01*
X26747790Y29675000D02*
X29750000Y26672790D01*
X62320000Y29550000D02*
X63882500Y31112500D01*
X26575000Y57950000D02*
X40885000Y57950000D01*
X47680000Y45535000D02*
X47680000Y42995000D01*
X15600000Y17975000D02*
X42405000Y17975000D01*
X63882500Y46331710D02*
X50739210Y59475000D01*
X26865000Y21575000D02*
X24325000Y21575000D01*
X11960000Y39186470D02*
X11960000Y48925000D01*
X14196470Y37046470D02*
X17250000Y40100000D01*
X14100000Y32595000D02*
X12700000Y31195000D01*
X50739210Y59475000D02*
X41560000Y59475000D01*
X42245000Y40100000D02*
X45140000Y42995000D01*
X48325000Y47750000D02*
X48325000Y51600000D01*
X48325000Y46180000D02*
X48325000Y47750000D01*
X29750000Y26672790D02*
X29750000Y24460000D01*
X48570000Y21600000D02*
X46030000Y21600000D01*
X40885000Y58800000D02*
X40885000Y57950000D01*
X14100000Y37046470D02*
X11960000Y39186470D01*
X14100000Y37046470D02*
X14196470Y37046470D01*
X48325000Y46180000D02*
X47680000Y45535000D01*
X11960000Y43335000D02*
X26575000Y57950000D01*
X17250000Y40100000D02*
X42245000Y40100000D01*
X14100000Y32595000D02*
X14100000Y37046470D01*
X12700000Y31195000D02*
X12700000Y20875000D01*
X41560000Y59475000D02*
X40885000Y58800000D01*
X11960000Y39186470D02*
X11960000Y43335000D01*
X12700000Y20875000D02*
X15600000Y17975000D01*
X14100000Y32595000D02*
X17020000Y29675000D01*
X17020000Y29675000D02*
X26747790Y29675000D01*
X31005000Y19975000D02*
X29405000Y21575000D01*
X42457000Y23000000D02*
X36932000Y28525000D01*
X35297210Y23000000D02*
X42457000Y23000000D01*
X49710000Y23000000D02*
X42457000Y23000000D01*
X51110000Y21600000D02*
X49710000Y23000000D01*
X33895000Y21100000D02*
X33895000Y21597790D01*
X34210000Y28525000D02*
X27360000Y35375000D01*
X36932000Y28525000D02*
X34210000Y28525000D01*
X32770000Y19975000D02*
X31005000Y19975000D01*
X33895000Y21100000D02*
X32770000Y19975000D01*
X33895000Y21597790D02*
X35297210Y23000000D01*
X31945000Y21964210D02*
X34555790Y24575000D01*
X29245790Y32075000D02*
X28120000Y32075000D01*
X36517790Y27525000D02*
X33795790Y27525000D01*
X28120000Y32075000D02*
X24820000Y35375000D01*
X37370000Y25470000D02*
X37370000Y26672790D01*
X34555790Y24575000D02*
X36475000Y24575000D01*
X31945000Y21575000D02*
X31945000Y21964210D01*
X37370000Y26672790D02*
X36517790Y27525000D01*
X33795790Y27525000D02*
X29245790Y32075000D01*
X36475000Y24575000D02*
X37370000Y25470000D01*
D32*
X48570000Y8900000D02*
X48570000Y5330000D01*
X48570000Y5330000D02*
X48650000Y5250000D01*
X46150000Y8780000D02*
X46030000Y8900000D01*
X46150000Y5250000D02*
X46150000Y8780000D01*
X43650000Y8740000D02*
X43490000Y8900000D01*
X43650000Y5250000D02*
X43650000Y8740000D01*
X41150000Y5250000D02*
X41150000Y8700000D01*
X41150000Y8700000D02*
X40950000Y8900000D01*
D31*
X42871210Y24000000D02*
X51250000Y24000000D01*
X51250000Y24000000D02*
X53650000Y21600000D01*
X35675000Y29600000D02*
X37271210Y29600000D01*
X37271210Y29600000D02*
X42871210Y24000000D01*
X29900000Y35375000D02*
X35675000Y29600000D01*
X37520000Y49505000D02*
X40885000Y52870000D01*
X37520000Y42995000D02*
X37520000Y49505000D01*
X34980000Y49505000D02*
X40885000Y55410000D01*
X34980000Y42995000D02*
X34980000Y49505000D01*
X24552210Y25430000D02*
X25222210Y26100000D01*
X25222210Y26100000D02*
X28350000Y26100000D01*
X21300000Y25430000D02*
X24552210Y25430000D01*
X14640000Y48925000D02*
X14500000Y48925000D01*
X20825000Y55110000D02*
X14640000Y48925000D01*
X49950000Y33105000D02*
X47680000Y35375000D01*
X49950000Y32075000D02*
X49950000Y33105000D01*
X51475000Y34120000D02*
X50220000Y35375000D01*
X49950000Y29535000D02*
X50795340Y29535000D01*
X51475000Y30214660D02*
X51475000Y34120000D01*
X50795340Y29535000D02*
X51475000Y30214660D01*
X25625000Y24530000D02*
X25062870Y23967870D01*
X19950000Y26203530D02*
X20446470Y26700000D01*
X20446470Y26700000D02*
X21300000Y26700000D01*
X25062870Y23967870D02*
X20638600Y23967870D01*
X19950000Y24656470D02*
X19950000Y26203530D01*
X20638600Y23967870D02*
X19950000Y24656470D01*
X17200000Y42995000D02*
X17200000Y43865000D01*
X17200000Y43865000D02*
X20825000Y47490000D01*
X22280000Y35375000D02*
X22400000Y35375000D01*
X22400000Y35375000D02*
X25625000Y32150000D01*
X40245000Y47925000D02*
X41020000Y47925000D01*
X41020000Y47925000D02*
X43425000Y50330000D01*
X44975000Y49100000D02*
X44975000Y51320000D01*
X40170000Y45600000D02*
X41475000Y45600000D01*
X44975000Y51320000D02*
X43425000Y52870000D01*
X41475000Y45600000D02*
X44975000Y49100000D01*
X42600000Y42995000D02*
X45975000Y46370000D01*
X45975000Y52860000D02*
X43425000Y55410000D01*
X45975000Y46370000D02*
X45975000Y52860000D01*
X42650000Y31175000D02*
X42650000Y32885000D01*
X42650000Y32885000D02*
X45140000Y35375000D01*
X40150000Y32925000D02*
X42600000Y35375000D01*
X40150000Y31175000D02*
X40150000Y32925000D01*
X19740000Y35375000D02*
X19740000Y34885000D01*
X19740000Y34885000D02*
X22500000Y32125000D01*
X19960000Y32125000D02*
X19960000Y32615000D01*
X19960000Y32615000D02*
X17200000Y35375000D01*
X50620000Y25545000D02*
X55687500Y30612500D01*
X50620000Y25545000D02*
X43280000Y25545000D01*
X62330000Y46470000D02*
X62330000Y34475000D01*
X55687500Y30612500D02*
X55687500Y47839580D01*
X55687500Y47839580D02*
X56272920Y48425000D01*
X60375000Y48425000D02*
X62330000Y46470000D01*
X43280000Y25545000D02*
X37650000Y31175000D01*
X56272920Y48425000D02*
X60375000Y48425000D01*
X27360000Y42995000D02*
X32290000Y47925000D01*
X32290000Y47925000D02*
X32625000Y47925000D01*
X29900000Y42995000D02*
X29945000Y42995000D01*
X29945000Y42995000D02*
X32550000Y45600000D01*
D33*
X2000000Y60250000D02*
X2000000Y2000000D01*
X65150000Y2000000D01*
X65150000Y60250000D01*
X2000000Y60250000D01*
M02*
