%TF.GenerationSoftware,KiCad,Pcbnew,7.0.10-7.0.10~ubuntu22.04.1*%
%TF.CreationDate,2024-04-21T22:18:57+02:00*%
%TF.ProjectId,axis_control_board,61786973-5f63-46f6-9e74-726f6c5f626f,rev?*%
%TF.SameCoordinates,Original*%
%TF.FileFunction,Copper,L2,Bot*%
%TF.FilePolarity,Positive*%
%FSLAX46Y46*%
G04 Gerber Fmt 4.6, Leading zero omitted, Abs format (unit mm)*
G04 Created by KiCad (PCBNEW 7.0.10-7.0.10~ubuntu22.04.1) date 2024-04-21 22:18:57*
%MOMM*%
%LPD*%
G01*
G04 APERTURE LIST*
G04 Aperture macros list*
%AMRoundRect*0 ,Rectangle with rounded corners *0 ,$1 Rounding radius *0 ,$2 $3 $4 $5 $6 $7 $8 $9 X,Y pos of 4 corners *0 ,Add a 4 corners polygon primitive as box body *4,1,4,-0.725,0.6,-0.725,-0.6,
0.725,-0.6,
0.725,0.6,
-0.725,0.6,0.0*0 ,Add four circle primitives for the rounded corners *1,1,0.5,-0.725,0.6*1,1,0.5,-0.725,-0.6*1,1,0.5,0.725,-0.6*1,1,0.5,0.725,0.6*0 ,Add four rect primitives between the rounded corners *20,1,0.5,-0.725,0.6,-0.725,-0.6,0.0*20,1,0.5,-0.725,-0.6,0.725,-0.6,0.0*20,1,0.5,0.725,-0.6,0.725,0.6,0.0*20,1,0.5,0.725,0.6,-0.725,0.6,0.0*%
G04 Aperture macros list end*
%ADD10C,0.8*%
%TA.AperFunction,NonConductor*%
%ADD11C,0.8*%
%TD*%
%TA.AperFunction,ComponentPad*%
%ADD12C,1.6*%
%TD*%
%TA.AperFunction,ComponentPad*%
%ADD13R,1.6X1.6*%
%TD*%
%TA.AperFunction,ComponentPad*%
%ADD14C,3.6*%
%TD*%
%TA.AperFunction,ComponentPad*%
%ADD15R,1.7X1.7*%
%TD*%
%TA.AperFunction,ComponentPad*%
%ADD16O,1.7X1.7*%
%TD*%
%TA.AperFunction,ComponentPad*%
%ADD17O,1.6X1.6*%
%TD*%
%TA.AperFunction,ComponentPad*%
%ADD18R,1.905X2*%
%TD*%
%TA.AperFunction,ComponentPad*%
%ADD19O,1.905X2*%
%TD*%
%TA.AperFunction,ComponentPad*%
%ADD20R,1.5X1.05*%
%TD*%
%TA.AperFunction,ComponentPad*%
%ADD21O,1.5X1.05*%
%TD*%
%TA.AperFunction,ComponentPad*%
%ADD22RoundRect,0.725X0.25*%
%TD*%
%TA.AperFunction,ComponentPad*%
%ADD23O,1.7X1.95*%
%TD*%
%TA.AperFunction,ComponentPad*%
%ADD24R,1.8X1.8*%
%TD*%
%TA.AperFunction,ComponentPad*%
%ADD25C,1.8*%
%TD*%
%TA.AperFunction,ComponentPad*%
%ADD26R,1.6X2.4*%
%TD*%
%TA.AperFunction,ComponentPad*%
%ADD27O,1.6X2.4*%
%TD*%
%TA.AperFunction,ComponentPad*%
%ADD28RoundRect,-0.75X0.25*%
%TD*%
%TA.AperFunction,ComponentPad*%
%ADD29O,1.7X2*%
%TD*%
%TA.AperFunction,ComponentPad*%
%ADD30RoundRect,-0.725X0.25*%
%TD*%
%TA.AperFunction,ComponentPad*%
%ADD31C,1.7*%
%TD*%
%TA.AperFunction,Profile*%
%ADD32C,0.2*%
%TD*%
G04 APERTURE END LIST*
D10*
D11*
X9413400Y49021430D02*
X9699110Y48164290D01*
X9699110Y48164290D02*
X9699110Y46735710D01*
X9699110Y46735710D02*
X9413400Y46164290D01*
X9413400Y46164290D02*
X9127680Y45878570D01*
X9127680Y45878570D02*
X8556260Y45592860D01*
X8556260Y45592860D02*
X7984830Y45592860D01*
X7984830Y45592860D02*
X7413400Y45878570D01*
X7413400Y45878570D02*
X7127680Y46164290D01*
X7127680Y46164290D02*
X6841970Y46735720D01*
X6841970Y46735720D02*
X6556260Y47878570D01*
X6556260Y47878570D02*
X6270540Y48450000D01*
X6270540Y48450000D02*
X5984830Y48735720D01*
X5984830Y48735720D02*
X5413400Y49021430D01*
X5413400Y49021430D02*
X4841970Y49021430D01*
X4841970Y49021430D02*
X4270540Y48735720D01*
X4270540Y48735720D02*
X3984830Y48450000D01*
X3984830Y48450000D02*
X3699110Y47878570D01*
X3699110Y47878570D02*
X3699110Y46450000D01*
X3699110Y46450000D02*
X3984830Y45592860D01*
X9699110Y43021430D02*
X3699110Y43021430D01*
X9699110Y40164290D02*
X3699110Y40164290D01*
X3699110Y40164290D02*
X7984830Y38164290D01*
X7984830Y38164290D02*
X3699110Y36164290D01*
X3699110Y36164290D02*
X9699110Y36164290D01*
X7984830Y33592860D02*
X7984830Y30735710D01*
X9699110Y34164290D02*
X3699110Y32164290D01*
X3699110Y32164290D02*
X9699110Y30164290D01*
X9127680Y24735720D02*
X9413400Y25021430D01*
X9413400Y25021430D02*
X9699110Y25878570D01*
X9699110Y25878570D02*
X9699110Y26450000D01*
X9699110Y26450000D02*
X9413400Y27307140D01*
X9413400Y27307140D02*
X8841970Y27878570D01*
X8841970Y27878570D02*
X8270540Y28164290D01*
X8270540Y28164290D02*
X7127680Y28450000D01*
X7127680Y28450000D02*
X6270540Y28450000D01*
X6270540Y28450000D02*
X5127680Y28164290D01*
X5127680Y28164290D02*
X4556260Y27878570D01*
X4556260Y27878570D02*
X3984830Y27307140D01*
X3984830Y27307140D02*
X3699110Y26450000D01*
X3699110Y26450000D02*
X3699110Y25878570D01*
X3699110Y25878570D02*
X3984830Y25021430D01*
X3984830Y25021430D02*
X4270540Y24735720D01*
X7984830Y22450000D02*
X7984830Y19592860D01*
X9699110Y23021430D02*
X3699110Y21021430D01*
X3699110Y21021430D02*
X9699110Y19021430D01*
X9413400Y17307140D02*
X9699110Y16450000D01*
X9699110Y16450000D02*
X9699110Y15021430D01*
X9699110Y15021430D02*
X9413400Y14450000D01*
X9413400Y14450000D02*
X9127680Y14164290D01*
X9127680Y14164290D02*
X8556260Y13878570D01*
X8556260Y13878570D02*
X7984830Y13878570D01*
X7984830Y13878570D02*
X7413400Y14164290D01*
X7413400Y14164290D02*
X7127680Y14450000D01*
X7127680Y14450000D02*
X6841970Y15021430D01*
X6841970Y15021430D02*
X6556260Y16164290D01*
X6556260Y16164290D02*
X6270540Y16735720D01*
X6270540Y16735720D02*
X5984830Y17021430D01*
X5984830Y17021430D02*
X5413400Y17307140D01*
X5413400Y17307140D02*
X4841970Y17307140D01*
X4841970Y17307140D02*
X4270540Y17021430D01*
X4270540Y17021430D02*
X3984830Y16735720D01*
X3984830Y16735720D02*
X3699110Y16164290D01*
X3699110Y16164290D02*
X3699110Y14735720D01*
X3699110Y14735720D02*
X3984830Y13878570D01*
D12*
X50350000Y52075000D03*
X47850000Y52075000D03*
D13*
X48325000Y47750000D03*
D12*
X50325000Y47750000D03*
D14*
X60975000Y6325000D03*
X7225000Y6200000D03*
D15*
X49950000Y32075000D03*
D16*
X49950000Y29535000D03*
X49950000Y26995000D03*
D13*
X53650000Y8900000D03*
D17*
X51110000Y8900000D03*
X48570000Y8900000D03*
X46030000Y8900000D03*
X43490000Y8900000D03*
X40950000Y8900000D03*
X38410000Y8900000D03*
X35870000Y8900000D03*
X35870000Y21600000D03*
X38410000Y21600000D03*
X40950000Y21600000D03*
X43490000Y21600000D03*
X46030000Y21600000D03*
X48570000Y21600000D03*
X51110000Y21600000D03*
X53650000Y21600000D03*
D18*
X57250000Y34475000D03*
D19*
X59790000Y34475000D03*
X62330000Y34475000D03*
D14*
X60975000Y56075000D03*
D20*
X21300000Y25430000D03*
D21*
X21300000Y26700000D03*
X21300000Y27970000D03*
D22*
X48650000Y5250000D03*
D23*
X46150000Y5250000D03*
X43650000Y5250000D03*
X41150000Y5250000D03*
D13*
X57325000Y41900000D03*
D12*
X59825000Y41900000D03*
X32550000Y45600000D03*
D17*
X40170000Y45600000D03*
D24*
X14500000Y48925000D03*
D25*
X11960000Y48925000D03*
D26*
X17200000Y42995000D03*
D27*
X19740000Y42995000D03*
X22280000Y42995000D03*
X24820000Y42995000D03*
X27360000Y42995000D03*
X29900000Y42995000D03*
X32440000Y42995000D03*
X34980000Y42995000D03*
X37520000Y42995000D03*
X40060000Y42995000D03*
X42600000Y42995000D03*
X45140000Y42995000D03*
X47680000Y42995000D03*
X50220000Y42995000D03*
X50220000Y35375000D03*
X47680000Y35375000D03*
X45140000Y35375000D03*
X42600000Y35375000D03*
X40060000Y35375000D03*
X37520000Y35375000D03*
X34980000Y35375000D03*
X32440000Y35375000D03*
X29900000Y35375000D03*
X27360000Y35375000D03*
X24820000Y35375000D03*
X22280000Y35375000D03*
X19740000Y35375000D03*
X17200000Y35375000D03*
D12*
X60465000Y37525000D03*
D17*
X52845000Y37525000D03*
D13*
X31945000Y8875000D03*
D17*
X29405000Y8875000D03*
X26865000Y8875000D03*
X24325000Y8875000D03*
X21785000Y8875000D03*
X19245000Y8875000D03*
X16705000Y8875000D03*
X14165000Y8875000D03*
X14165000Y21575000D03*
X16705000Y21575000D03*
X19245000Y21575000D03*
X21785000Y21575000D03*
X24325000Y21575000D03*
X26865000Y21575000D03*
X29405000Y21575000D03*
X31945000Y21575000D03*
D12*
X32625000Y47925000D03*
D17*
X40245000Y47925000D03*
D12*
X25625000Y32150000D03*
D17*
X25625000Y24530000D03*
D12*
X35970000Y26100000D03*
D17*
X28350000Y26100000D03*
D28*
X57225000Y46825000D03*
D29*
X59725000Y46825000D03*
D14*
X7225000Y56100000D03*
D18*
X57240000Y29550000D03*
D19*
X59780000Y29550000D03*
X62320000Y29550000D03*
D30*
X37650000Y31175000D03*
D23*
X40150000Y31175000D03*
X42650000Y31175000D03*
X45150000Y31175000D03*
D15*
X43425000Y57950000D03*
D31*
X40885000Y57950000D03*
X43425000Y55410000D03*
X40885000Y55410000D03*
X43425000Y52870000D03*
X40885000Y52870000D03*
X43425000Y50330000D03*
X40885000Y50330000D03*
D12*
X14100000Y24975000D03*
D17*
X14100000Y32595000D03*
D22*
X26945000Y5200000D03*
D23*
X24445000Y5200000D03*
X21945000Y5200000D03*
X19445000Y5200000D03*
D12*
X20825000Y47490000D03*
D17*
X20825000Y55110000D03*
D15*
X22500000Y32125000D03*
D16*
X19960000Y32125000D03*
X17420000Y32125000D03*
D32*
X2000000Y60250000D02*
X2000000Y2000000D01*
X65150000Y2000000D01*
X65150000Y60250000D01*
X2000000Y60250000D01*
M02*
